STARTFONT 2.1
FONT -sun-timmons-medium-i-normal--10-100-75-75-p-52-adobe-fontspecific
SIZE 10 75 75
FONTBOUNDINGBOX 13 12 -2 -2

STARTPROPERTIES 28
FOUNDRY "sun"
FAMILY_NAME "timmons"
WEIGHT_NAME "medium"
SLANT "i"
SETWIDTH_NAME "normal"
ADD_STYLE_NAME ""
PIXEL_SIZE 10
POINT_SIZE 100
RESOLUTION_X 75
RESOLUTION_Y 75
SPACING "p"
AVERAGE_WIDTH 52
CHARSET_REGISTRY "adobe"
CHARSET_ENCODING "fontspecific"
COPYRIGHT "© 1999 Sun Microsystems, Inc."
RAW_PIXELSIZE 1000
RAW_POINTSIZE 964
RAW_ASCENT 924
RAW_DESCENT 196
RAW_AVERAGE_WIDTH 5015
FACE_NAME "TimmonsItalicnsB5"
_XMBDFED_INFO "Edited with xmbdfed 2.4."
WEIGHT 10
X_HEIGHT -1
QUAD_WIDTH 5
DEFAULT_CHAR 4
FONT_DESCENT 2
FONT_ASCENT 10
ENDPROPERTIES

CHARS 214

STARTCHAR char32
ENCODING 32
SWIDTH 25 0
DWIDTH 3 0
BBX 0 0 0 0
BITMAP
ENDCHAR

STARTCHAR char33
ENCODING 33
SWIDTH 25 0
DWIDTH 3 0
BBX 2 7 1 0
BITMAP
40
40
40
40
40
00
80
ENDCHAR

STARTCHAR char34
ENCODING 34
SWIDTH 34 0
DWIDTH 4 0
BBX 4 2 1 5
BITMAP
50
50
ENDCHAR

STARTCHAR char35
ENCODING 35
SWIDTH 43 0
DWIDTH 5 0
BBX 5 8 0 0
BITMAP
50
50
F8
50
50
F8
50
50
ENDCHAR

STARTCHAR char36
ENCODING 36
SWIDTH 43 0
DWIDTH 5 0
BBX 6 9 0 -1
BITMAP
08
74
54
70
30
38
A8
B0
40
ENDCHAR

STARTCHAR char37
ENCODING 37
SWIDTH 60 0
DWIDTH 7 0
BBX 7 7 0 0
BITMAP
74
94
9E
EE
1A
1A
2E
ENDCHAR

STARTCHAR char38
ENCODING 38
SWIDTH 60 0
DWIDTH 7 0
BBX 7 7 0 0
BITMAP
18
18
10
7C
98
90
EC
ENDCHAR

STARTCHAR char39
ENCODING 39
SWIDTH 17 0
DWIDTH 2 0
BBX 1 2 2 5
BITMAP
80
80
ENDCHAR

STARTCHAR char40
ENCODING 40
SWIDTH 25 0
DWIDTH 3 0
BBX 4 10 1 -2
BITMAP
10
20
40
80
80
80
80
80
40
40
ENDCHAR

STARTCHAR char41
ENCODING 41
SWIDTH 25 0
DWIDTH 3 0
BBX 4 10 -1 -2
BITMAP
10
10
10
10
10
10
20
20
C0
80
ENDCHAR

STARTCHAR char42
ENCODING 42
SWIDTH 34 0
DWIDTH 4 0
BBX 4 4 1 3
BITMAP
20
70
70
20
ENDCHAR

STARTCHAR char43
ENCODING 43
SWIDTH 51 0
DWIDTH 6 0
BBX 7 6 0 0
BITMAP
10
10
FE
10
10
10
ENDCHAR

STARTCHAR char44
ENCODING 44
SWIDTH 17 0
DWIDTH 2 0
BBX 1 2 0 -1
BITMAP
80
80
ENDCHAR

STARTCHAR char45
ENCODING 45
SWIDTH 25 0
DWIDTH 3 0
BBX 3 1 0 2
BITMAP
E0
ENDCHAR

STARTCHAR char46
ENCODING 46
SWIDTH 17 0
DWIDTH 2 0
BBX 1 1 1 0
BITMAP
80
ENDCHAR

STARTCHAR char47
ENCODING 47
SWIDTH 25 0
DWIDTH 3 0
BBX 4 7 0 0
BITMAP
10
20
20
20
40
40
80
ENDCHAR

STARTCHAR char48
ENCODING 48
SWIDTH 43 0
DWIDTH 5 0
BBX 5 7 0 0
BITMAP
38
48
48
88
88
90
60
ENDCHAR

STARTCHAR char49
ENCODING 49
SWIDTH 43 0
DWIDTH 5 0
BBX 4 7 0 0
BITMAP
10
10
20
20
20
20
C0
ENDCHAR

STARTCHAR char50
ENCODING 50
SWIDTH 43 0
DWIDTH 5 0
BBX 5 7 0 0
BITMAP
38
08
08
10
20
50
E0
ENDCHAR

STARTCHAR char51
ENCODING 51
SWIDTH 43 0
DWIDTH 5 0
BBX 5 7 0 0
BITMAP
30
18
20
10
10
10
E0
ENDCHAR

STARTCHAR char52
ENCODING 52
SWIDTH 43 0
DWIDTH 5 0
BBX 5 7 0 0
BITMAP
08
30
50
50
F8
20
20
ENDCHAR

STARTCHAR char53
ENCODING 53
SWIDTH 43 0
DWIDTH 5 0
BBX 5 7 0 0
BITMAP
38
20
30
10
10
20
E0
ENDCHAR

STARTCHAR char54
ENCODING 54
SWIDTH 43 0
DWIDTH 5 0
BBX 5 7 0 0
BITMAP
10
20
70
C8
88
98
70
ENDCHAR

STARTCHAR char55
ENCODING 55
SWIDTH 43 0
DWIDTH 5 0
BBX 4 7 1 0
BITMAP
70
10
20
20
40
40
80
ENDCHAR

STARTCHAR char56
ENCODING 56
SWIDTH 43 0
DWIDTH 5 0
BBX 5 7 0 0
BITMAP
78
48
70
50
90
90
E0
ENDCHAR

STARTCHAR char57
ENCODING 57
SWIDTH 43 0
DWIDTH 5 0
BBX 5 7 0 0
BITMAP
38
48
48
48
30
20
40
ENDCHAR

STARTCHAR char58
ENCODING 58
SWIDTH 25 0
DWIDTH 3 0
BBX 2 5 1 0
BITMAP
40
00
00
00
80
ENDCHAR

STARTCHAR char59
ENCODING 59
SWIDTH 25 0
DWIDTH 3 0
BBX 3 6 0 -1
BITMAP
20
00
00
00
40
40
ENDCHAR

STARTCHAR char60
ENCODING 60
SWIDTH 51 0
DWIDTH 6 0
BBX 5 5 0 0
BITMAP
18
60
C0
30
08
ENDCHAR

STARTCHAR char61
ENCODING 61
SWIDTH 51 0
DWIDTH 6 0
BBX 7 2 0 2
BITMAP
FE
FE
ENDCHAR

STARTCHAR char62
ENCODING 62
SWIDTH 51 0
DWIDTH 6 0
BBX 5 5 0 0
BITMAP
C0
30
18
60
80
ENDCHAR

STARTCHAR char63
ENCODING 63
SWIDTH 34 0
DWIDTH 4 0
BBX 4 7 1 0
BITMAP
70
10
20
40
40
00
C0
ENDCHAR

STARTCHAR char64
ENCODING 64
SWIDTH 7 0
DWIDTH 11 0
BBX 8 8 1 0
BITMAP
1C
22
5B
A5
A5
AD
7F
3C
ENDCHAR

STARTCHAR char65
ENCODING 65
SWIDTH 51 0
DWIDTH 6 0
BBX 7 7 -1 0
BITMAP
04
0C
0C
14
1C
64
4C
ENDCHAR

STARTCHAR char66
ENCODING 66
SWIDTH 51 0
DWIDTH 6 0
BBX 7 7 -1 0
BITMAP
3E
12
34
2C
24
24
F8
ENDCHAR

STARTCHAR char67
ENCODING 67
SWIDTH 51 0
DWIDTH 6 0
BBX 6 7 1 0
BITMAP
3C
44
80
80
80
8C
70
ENDCHAR

STARTCHAR char68
ENCODING 68
SWIDTH 60 0
DWIDTH 7 0
BBX 8 7 -1 0
BITMAP
1E
11
21
21
22
26
78
ENDCHAR

STARTCHAR char69
ENCODING 69
SWIDTH 51 0
DWIDTH 6 0
BBX 8 7 -1 0
BITMAP
1F
10
14
28
24
24
7C
ENDCHAR

STARTCHAR char70
ENCODING 70
SWIDTH 43 0
DWIDTH 5 0
BBX 7 7 0 0
BITMAP
64
20
28
70
48
40
C0
ENDCHAR

STARTCHAR char71
ENCODING 71
SWIDTH 60 0
DWIDTH 7 0
BBX 6 7 1 0
BITMAP
7C
44
80
88
88
88
78
ENDCHAR

STARTCHAR char72
ENCODING 72
SWIDTH 60 0
DWIDTH 7 0
BBX 9 7 -1 0
BITMAP
1D80
1100
2200
3E00
2200
2600
EC00
ENDCHAR

STARTCHAR char73
ENCODING 73
SWIDTH 25 0
DWIDTH 3 0
BBX 5 7 0 0
BITMAP
38
20
20
60
40
40
C0
ENDCHAR

STARTCHAR char74
ENCODING 74
SWIDTH 34 0
DWIDTH 4 0
BBX 5 7 0 0
BITMAP
18
10
10
20
20
A0
C0
ENDCHAR

STARTCHAR char75
ENCODING 75
SWIDTH 51 0
DWIDTH 6 0
BBX 8 7 -1 0
BITMAP
1B
14
38
28
28
24
E6
ENDCHAR

STARTCHAR char76
ENCODING 76
SWIDTH 51 0
DWIDTH 6 0
BBX 7 7 -1 0
BITMAP
18
10
30
20
20
22
FC
ENDCHAR

STARTCHAR char77
ENCODING 77
SWIDTH 68 0
DWIDTH 8 0
BBX 11 7 -1 0
BITMAP
18E0
3980
3A80
2B00
2D00
4900
CB00
ENDCHAR

STARTCHAR char78
ENCODING 78
SWIDTH 60 0
DWIDTH 7 0
BBX 10 7 -1 0
BITMAP
11C0
3900
2900
2900
2600
4400
C400
ENDCHAR

STARTCHAR char79
ENCODING 79
SWIDTH 60 0
DWIDTH 7 0
BBX 6 7 1 0
BITMAP
7C
C4
84
84
88
88
70
ENDCHAR

STARTCHAR char80
ENCODING 80
SWIDTH 43 0
DWIDTH 5 0
BBX 7 7 -1 0
BITMAP
1E
12
12
3C
20
20
60
ENDCHAR

STARTCHAR char81
ENCODING 81
SWIDTH 60 0
DWIDTH 7 0
BBX 6 9 1 -2
BITMAP
7C
C4
84
84
88
88
B0
4C
B0
ENDCHAR

STARTCHAR char82
ENCODING 82
SWIDTH 51 0
DWIDTH 6 0
BBX 7 7 -1 0
BITMAP
1E
12
34
38
28
24
E6
ENDCHAR

STARTCHAR char83
ENCODING 83
SWIDTH 43 0
DWIDTH 5 0
BBX 6 7 0 0
BITMAP
7C
44
60
30
98
88
F0
ENDCHAR

STARTCHAR char84
ENCODING 84
SWIDTH 43 0
DWIDTH 5 0
BBX 7 7 0 0
BITMAP
7C
54
10
20
20
20
60
ENDCHAR

STARTCHAR char85
ENCODING 85
SWIDTH 60 0
DWIDTH 7 0
BBX 7 7 1 0
BITMAP
F6
44
44
84
88
88
70
ENDCHAR

STARTCHAR char86
ENCODING 86
SWIDTH 51 0
DWIDTH 6 0
BBX 7 7 1 0
BITMAP
66
48
50
50
60
40
40
ENDCHAR

STARTCHAR char87
ENCODING 87
SWIDTH 77 0
DWIDTH 9 0
BBX 10 6 1 1
BITMAP
7CC0
4900
5A00
6C00
6C00
4800
ENDCHAR

STARTCHAR char88
ENCODING 88
SWIDTH 51 0
DWIDTH 6 0
BBX 8 7 -1 0
BITMAP
1F
14
1C
08
38
28
CC
ENDCHAR

STARTCHAR char89
ENCODING 89
SWIDTH 51 0
DWIDTH 6 0
BBX 7 7 1 0
BITMAP
E4
28
30
20
20
60
E0
ENDCHAR

STARTCHAR char90
ENCODING 90
SWIDTH 51 0
DWIDTH 6 0
BBX 7 7 0 0
BITMAP
7E
04
08
10
20
42
FC
ENDCHAR

STARTCHAR char91
ENCODING 91
SWIDTH 25 0
DWIDTH 3 0
BBX 5 9 0 -2
BITMAP
38
20
20
40
40
40
80
80
C0
ENDCHAR

STARTCHAR char92
ENCODING 92
SWIDTH 25 0
DWIDTH 3 0
BBX 3 8 0 0
BITMAP
80
80
40
40
40
40
20
20
ENDCHAR

STARTCHAR char93
ENCODING 93
SWIDTH 25 0
DWIDTH 3 0
BBX 5 9 -1 -2
BITMAP
18
10
10
10
10
20
20
20
40
ENDCHAR

STARTCHAR char94
ENCODING 94
SWIDTH 0 0
DWIDTH 0 0
BBX 3 1 0 8
BITMAP
E0
ENDCHAR

STARTCHAR char95
ENCODING 95
SWIDTH 51 0
DWIDTH 6 0
BBX 6 1 0 -2
BITMAP
FC
ENDCHAR

STARTCHAR char96
ENCODING 96
SWIDTH 0 0
DWIDTH 0 0
BBX 2 1 0 6
BITMAP
40
ENDCHAR

STARTCHAR char97
ENCODING 97
SWIDTH 43 0
DWIDTH 5 0
BBX 5 5 0 0
BITMAP
38
48
90
B0
D0
ENDCHAR

STARTCHAR char98
ENCODING 98
SWIDTH 43 0
DWIDTH 5 0
BBX 5 7 0 0
BITMAP
20
20
78
48
48
50
E0
ENDCHAR

STARTCHAR char99
ENCODING 99
SWIDTH 34 0
DWIDTH 4 0
BBX 4 5 0 0
BITMAP
30
50
80
80
E0
ENDCHAR

STARTCHAR char100
ENCODING 100
SWIDTH 43 0
DWIDTH 5 0
BBX 6 7 0 0
BITMAP
08
08
38
48
90
B0
D0
ENDCHAR

STARTCHAR char101
ENCODING 101
SWIDTH 34 0
DWIDTH 4 0
BBX 4 5 0 0
BITMAP
30
50
E0
80
E0
ENDCHAR

STARTCHAR char102
ENCODING 102
SWIDTH 25 0
DWIDTH 3 0
BBX 7 9 -2 -2
BITMAP
06
08
1C
08
10
10
10
20
C0
ENDCHAR

STARTCHAR char103
ENCODING 103
SWIDTH 34 0
DWIDTH 4 0
BBX 6 7 -1 -2
BITMAP
30
48
78
20
70
88
70
ENDCHAR

STARTCHAR char104
ENCODING 104
SWIDTH 43 0
DWIDTH 5 0
BBX 5 7 0 0
BITMAP
20
20
58
68
48
90
98
ENDCHAR

STARTCHAR char105
ENCODING 105
SWIDTH 25 0
DWIDTH 3 0
BBX 2 7 1 0
BITMAP
40
00
C0
80
80
80
C0
ENDCHAR

STARTCHAR char106
ENCODING 106
SWIDTH 17 0
DWIDTH 2 0
BBX 5 9 -2 -2
BITMAP
08
00
18
10
10
10
20
20
C0
ENDCHAR

STARTCHAR char107
ENCODING 107
SWIDTH 43 0
DWIDTH 5 0
BBX 6 7 0 0
BITMAP
20
20
58
50
60
90
98
ENDCHAR

STARTCHAR char108
ENCODING 108
SWIDTH 25 0
DWIDTH 3 0
BBX 3 7 0 0
BITMAP
20
20
40
40
40
80
E0
ENDCHAR

STARTCHAR char109
ENCODING 109
SWIDTH 60 0
DWIDTH 7 0
BBX 7 5 0 0
BITMAP
92
7E
56
94
96
ENDCHAR

STARTCHAR char110
ENCODING 110
SWIDTH 43 0
DWIDTH 5 0
BBX 5 5 0 0
BITMAP
58
68
50
90
90
ENDCHAR

STARTCHAR char111
ENCODING 111
SWIDTH 43 0
DWIDTH 5 0
BBX 5 5 0 0
BITMAP
30
48
88
98
E0
ENDCHAR

STARTCHAR char112
ENCODING 112
SWIDTH 43 0
DWIDTH 5 0
BBX 6 7 -1 -2
BITMAP
3C
24
24
48
70
40
C0
ENDCHAR

STARTCHAR char113
ENCODING 113
SWIDTH 43 0
DWIDTH 5 0
BBX 5 7 0 -2
BITMAP
38
48
90
B0
D0
10
30
ENDCHAR

STARTCHAR char114
ENCODING 114
SWIDTH 25 0
DWIDTH 3 0
BBX 4 5 0 0
BITMAP
50
60
40
40
40
ENDCHAR

STARTCHAR char115
ENCODING 115
SWIDTH 34 0
DWIDTH 4 0
BBX 4 5 0 0
BITMAP
70
50
20
A0
E0
ENDCHAR

STARTCHAR char116
ENCODING 116
SWIDTH 25 0
DWIDTH 3 0
BBX 3 6 0 0
BITMAP
20
60
40
40
C0
E0
ENDCHAR

STARTCHAR char117
ENCODING 117
SWIDTH 43 0
DWIDTH 5 0
BBX 5 5 0 0
BITMAP
48
48
D0
B0
D8
ENDCHAR

STARTCHAR char118
ENCODING 118
SWIDTH 34 0
DWIDTH 4 0
BBX 4 5 0 0
BITMAP
D0
50
50
70
40
ENDCHAR

STARTCHAR char119
ENCODING 119
SWIDTH 51 0
DWIDTH 6 0
BBX 6 5 0 0
BITMAP
D4
54
74
7C
50
ENDCHAR

STARTCHAR char120
ENCODING 120
SWIDTH 43 0
DWIDTH 5 0
BBX 5 5 0 0
BITMAP
D8
30
20
60
90
ENDCHAR

STARTCHAR char121
ENCODING 121
SWIDTH 34 0
DWIDTH 4 0
BBX 5 7 -1 -2
BITMAP
48
28
28
30
20
40
C0
ENDCHAR

STARTCHAR char122
ENCODING 122
SWIDTH 34 0
DWIDTH 4 0
BBX 4 5 0 0
BITMAP
70
60
40
40
E0
ENDCHAR

STARTCHAR char123
ENCODING 123
SWIDTH 34 0
DWIDTH 4 0
BBX 3 9 0 -2
BITMAP
60
40
40
40
80
40
40
40
60
ENDCHAR

STARTCHAR char124
ENCODING 124
SWIDTH 25 0
DWIDTH 3 0
BBX 1 8 1 0
BITMAP
80
80
80
80
80
80
80
80
ENDCHAR

STARTCHAR char125
ENCODING 125
SWIDTH 34 0
DWIDTH 4 0
BBX 3 9 0 -2
BITMAP
C0
40
40
60
20
40
40
40
C0
ENDCHAR

STARTCHAR char126
ENCODING 126
SWIDTH 0 0
DWIDTH 0 0
BBX 4 2 0 8
BITMAP
60
A0
ENDCHAR

STARTCHAR char128
ENCODING 128
SWIDTH 43 0
DWIDTH 5 0
BBX 7 7 0 0
BITMAP
1C
22
40
F8
80
80
70
ENDCHAR

STARTCHAR char130
ENCODING 130
SWIDTH 17 0
DWIDTH 2 0
BBX 1 2 0 -1
BITMAP
80
80
ENDCHAR

STARTCHAR char131
ENCODING 131
SWIDTH 0 0
DWIDTH 0 0
BBX 3 1 0 8
BITMAP
E0
ENDCHAR

STARTCHAR char132
ENCODING 132
SWIDTH 34 0
DWIDTH 4 0
BBX 3 2 0 -1
BITMAP
A0
A0
ENDCHAR

STARTCHAR char133
ENCODING 133
SWIDTH 7 0
DWIDTH 11 0
BBX 7 1 2 0
BITMAP
92
ENDCHAR

STARTCHAR char134
ENCODING 134
SWIDTH 43 0
DWIDTH 5 0
BBX 4 9 1 -2
BITMAP
20
20
F0
40
40
40
40
80
80
ENDCHAR

STARTCHAR char135
ENCODING 135
SWIDTH 86 0
DWIDTH 10 0
BBX 0 0 0 0
BITMAP
ENDCHAR

STARTCHAR char136
ENCODING 136
SWIDTH 0 0
DWIDTH 0 0
BBX 3 1 0 6
BITMAP
60
ENDCHAR

STARTCHAR char137
ENCODING 137
SWIDTH 86 0
DWIDTH 10 0
BBX 0 0 0 0
BITMAP
ENDCHAR

STARTCHAR char138
ENCODING 138
SWIDTH 86 0
DWIDTH 10 0
BBX 0 0 0 0
BITMAP
ENDCHAR

STARTCHAR char139
ENCODING 139
SWIDTH 34 0
DWIDTH 4 0
BBX 2 4 1 1
BITMAP
40
80
80
40
ENDCHAR

STARTCHAR char140
ENCODING 140
SWIDTH 86 0
DWIDTH 10 0
BBX 10 7 0 0
BITMAP
3FC0
4200
4580
8680
8480
8C80
7F80
ENDCHAR

STARTCHAR char141
ENCODING 141
SWIDTH 86 0
DWIDTH 10 0
BBX 0 0 0 0
BITMAP
ENDCHAR

STARTCHAR char143
ENCODING 143
SWIDTH 86 0
DWIDTH 10 0
BBX 0 0 0 0
BITMAP
ENDCHAR

STARTCHAR char145
ENCODING 145
SWIDTH 17 0
DWIDTH 2 0
BBX 1 2 2 5
BITMAP
80
80
ENDCHAR

STARTCHAR char146
ENCODING 146
SWIDTH 17 0
DWIDTH 2 0
BBX 1 2 2 5
BITMAP
80
80
ENDCHAR

STARTCHAR char147
ENCODING 147
SWIDTH 34 0
DWIDTH 4 0
BBX 4 2 1 5
BITMAP
A0
A0
ENDCHAR

STARTCHAR char148
ENCODING 148
SWIDTH 34 0
DWIDTH 4 0
BBX 3 2 2 5
BITMAP
A0
A0
ENDCHAR

STARTCHAR char149
ENCODING 149
SWIDTH 34 0
DWIDTH 4 0
BBX 3 3 0 2
BITMAP
E0
E0
E0
ENDCHAR

STARTCHAR char150
ENCODING 150
SWIDTH 43 0
DWIDTH 5 0
BBX 4 1 0 2
BITMAP
F0
ENDCHAR

STARTCHAR char151
ENCODING 151
SWIDTH 51 0
DWIDTH 6 0
BBX 7 1 0 3
BITMAP
FE
ENDCHAR

STARTCHAR char152
ENCODING 152
SWIDTH 0 0
DWIDTH 0 0
BBX 5 1 -1 6
BITMAP
70
ENDCHAR

STARTCHAR char153
ENCODING 153
SWIDTH 77 0
DWIDTH 9 0
BBX 9 4 0 3
BITMAP
F900
4B00
4B00
EF80
ENDCHAR

STARTCHAR char154
ENCODING 154
SWIDTH 86 0
DWIDTH 10 0
BBX 0 0 0 0
BITMAP
ENDCHAR

STARTCHAR char155
ENCODING 155
SWIDTH 34 0
DWIDTH 4 0
BBX 2 4 1 1
BITMAP
80
80
C0
80
ENDCHAR

STARTCHAR char156
ENCODING 156
SWIDTH 60 0
DWIDTH 7 0
BBX 7 5 0 0
BITMAP
36
4A
9C
90
EE
ENDCHAR

STARTCHAR char157
ENCODING 157
SWIDTH 86 0
DWIDTH 10 0
BBX 0 0 0 0
BITMAP
ENDCHAR

STARTCHAR char159
ENCODING 159
SWIDTH 51 0
DWIDTH 6 0
BBX 7 9 1 0
BITMAP
28
00
EE
28
30
20
20
60
E0
ENDCHAR

STARTCHAR char160
ENCODING 160
SWIDTH 25 0
DWIDTH 3 0
BBX 0 0 0 0
BITMAP
ENDCHAR

STARTCHAR char161
ENCODING 161
SWIDTH 25 0
DWIDTH 3 0
BBX 3 7 0 0
BITMAP
20
20
20
40
40
40
80
ENDCHAR

STARTCHAR char162
ENCODING 162
SWIDTH 34 0
DWIDTH 4 0
BBX 4 7 0 -1
BITMAP
10
30
50
A0
A0
E0
40
ENDCHAR

STARTCHAR char163
ENCODING 163
SWIDTH 43 0
DWIDTH 5 0
BBX 7 7 -1 0
BITMAP
0E
10
10
38
10
E4
F8
ENDCHAR

STARTCHAR char164
ENCODING 164
SWIDTH 0 0
DWIDTH 0 0
BBX 2 1 1 8
BITMAP
80
ENDCHAR

STARTCHAR char165
ENCODING 165
SWIDTH 0 0
DWIDTH 0 0
BBX 3 1 0 8
BITMAP
40
ENDCHAR

STARTCHAR char166
ENCODING 166
SWIDTH 86 0
DWIDTH 10 0
BBX 0 0 0 0
BITMAP
ENDCHAR

STARTCHAR char167
ENCODING 167
SWIDTH 34 0
DWIDTH 4 0
BBX 6 10 0 -2
BITMAP
18
24
20
E0
90
D0
70
20
A0
C0
ENDCHAR

STARTCHAR char168
ENCODING 168
SWIDTH 0 0
DWIDTH 0 0
BBX 3 1 0 6
BITMAP
A0
ENDCHAR

STARTCHAR char169
ENCODING 169
SWIDTH 68 0
DWIDTH 8 0
BBX 7 7 0 0
BITMAP
38
FE
EA
C2
C2
F6
38
ENDCHAR

STARTCHAR char170
ENCODING 170
SWIDTH 0 0
DWIDTH 0 0
BBX 3 1 0 8
BITMAP
A0
ENDCHAR

STARTCHAR char171
ENCODING 171
SWIDTH 34 0
DWIDTH 4 0
BBX 5 5 0 0
BITMAP
48
50
A0
50
50
ENDCHAR

STARTCHAR char172
ENCODING 172
SWIDTH 60 0
DWIDTH 7 0
BBX 7 3 0 0
BITMAP
FE
02
02
ENDCHAR

STARTCHAR char173
ENCODING 173
SWIDTH 86 0
DWIDTH 10 0
BBX 0 0 0 0
BITMAP
ENDCHAR

STARTCHAR char174
ENCODING 174
SWIDTH 68 0
DWIDTH 8 0
BBX 7 7 0 0
BITMAP
38
FE
AA
B2
BA
EE
38
ENDCHAR

STARTCHAR char175
ENCODING 175
SWIDTH 86 0
DWIDTH 10 0
BBX 0 0 0 0
BITMAP
ENDCHAR

STARTCHAR char176
ENCODING 176
SWIDTH 25 0
DWIDTH 3 0
BBX 4 3 1 4
BITMAP
60
90
60
ENDCHAR

STARTCHAR char177
ENCODING 177
SWIDTH 43 0
DWIDTH 5 0
BBX 5 7 0 0
BITMAP
20
20
20
F8
20
20
F8
ENDCHAR

STARTCHAR char178
ENCODING 178
SWIDTH 86 0
DWIDTH 10 0
BBX 0 0 0 0
BITMAP
ENDCHAR

STARTCHAR char179
ENCODING 179
SWIDTH 86 0
DWIDTH 10 0
BBX 0 0 0 0
BITMAP
ENDCHAR

STARTCHAR char180
ENCODING 180
SWIDTH 0 0
DWIDTH 0 0
BBX 2 1 1 6
BITMAP
80
ENDCHAR

STARTCHAR char181
ENCODING 181
SWIDTH 86 0
DWIDTH 10 0
BBX 0 0 0 0
BITMAP
ENDCHAR

STARTCHAR char182
ENCODING 182
SWIDTH 60 0
DWIDTH 7 0
BBX 5 9 1 -2
BITMAP
78
D0
D0
50
50
50
50
50
50
ENDCHAR

STARTCHAR char183
ENCODING 183
SWIDTH 17 0
DWIDTH 2 0
BBX 1 1 1 3
BITMAP
80
ENDCHAR

STARTCHAR char184
ENCODING 184
SWIDTH 0 0
DWIDTH 0 0
BBX 2 2 -2 -2
BITMAP
40
C0
ENDCHAR

STARTCHAR char186
ENCODING 186
SWIDTH 0 0
DWIDTH 0 0
BBX 4 2 0 8
BITMAP
60
A0
ENDCHAR

STARTCHAR char187
ENCODING 187
SWIDTH 34 0
DWIDTH 4 0
BBX 4 5 0 0
BITMAP
50
50
50
A0
A0
ENDCHAR

STARTCHAR char188
ENCODING 188
SWIDTH 86 0
DWIDTH 10 0
BBX 0 0 0 0
BITMAP
ENDCHAR

STARTCHAR char189
ENCODING 189
SWIDTH 86 0
DWIDTH 10 0
BBX 0 0 0 0
BITMAP
ENDCHAR

STARTCHAR char191
ENCODING 191
SWIDTH 34 0
DWIDTH 4 0
BBX 4 7 0 0
BITMAP
30
20
20
20
40
A0
E0
ENDCHAR

STARTCHAR char192
ENCODING 192
SWIDTH 51 0
DWIDTH 6 0
BBX 7 9 -1 0
BITMAP
04
00
04
0C
0C
14
1C
64
4C
ENDCHAR

STARTCHAR char193
ENCODING 193
SWIDTH 51 0
DWIDTH 6 0
BBX 7 9 -1 0
BITMAP
04
00
04
0C
0C
14
1C
64
4C
ENDCHAR

STARTCHAR char194
ENCODING 194
SWIDTH 51 0
DWIDTH 6 0
BBX 7 9 -1 0
BITMAP
0E
00
04
0C
0C
14
1C
64
4C
ENDCHAR

STARTCHAR char195
ENCODING 195
SWIDTH 51 0
DWIDTH 6 0
BBX 7 10 -1 0
BITMAP
0E
14
00
04
0C
0C
14
1C
64
4C
ENDCHAR

STARTCHAR char196
ENCODING 196
SWIDTH 51 0
DWIDTH 6 0
BBX 8 9 -1 0
BITMAP
05
00
04
0C
0C
14
1C
64
4C
ENDCHAR

STARTCHAR char197
ENCODING 197
SWIDTH 51 0
DWIDTH 6 0
BBX 8 10 -1 0
BITMAP
03
03
03
04
0C
0C
14
1C
64
4C
ENDCHAR

STARTCHAR char198
ENCODING 198
SWIDTH 77 0
DWIDTH 9 0
BBX 10 7 -1 0
BITMAP
07C0
0A00
0C80
1700
3C80
4440
CF80
ENDCHAR

STARTCHAR char199
ENCODING 199
SWIDTH 51 0
DWIDTH 6 0
BBX 6 9 1 -2
BITMAP
7C
44
80
80
80
8C
70
40
40
ENDCHAR

STARTCHAR char200
ENCODING 200
SWIDTH 51 0
DWIDTH 6 0
BBX 8 9 -1 0
BITMAP
04
00
1F
10
14
28
24
24
7C
ENDCHAR

STARTCHAR char201
ENCODING 201
SWIDTH 51 0
DWIDTH 6 0
BBX 8 9 -1 0
BITMAP
04
00
1F
10
14
28
24
24
7C
ENDCHAR

STARTCHAR char202
ENCODING 202
SWIDTH 51 0
DWIDTH 6 0
BBX 8 9 -1 0
BITMAP
0C
00
1F
10
14
28
24
24
7C
ENDCHAR

STARTCHAR char203
ENCODING 203
SWIDTH 51 0
DWIDTH 6 0
BBX 8 9 -1 0
BITMAP
12
00
1F
10
14
28
24
22
7C
ENDCHAR

STARTCHAR char204
ENCODING 204
SWIDTH 25 0
DWIDTH 3 0
BBX 5 9 0 0
BITMAP
10
00
38
20
20
60
40
40
C0
ENDCHAR

STARTCHAR char205
ENCODING 205
SWIDTH 25 0
DWIDTH 3 0
BBX 5 9 0 0
BITMAP
10
00
38
20
20
60
40
40
C0
ENDCHAR

STARTCHAR char206
ENCODING 206
SWIDTH 25 0
DWIDTH 3 0
BBX 5 9 0 0
BITMAP
30
00
38
20
20
60
40
40
C0
ENDCHAR

STARTCHAR char207
ENCODING 207
SWIDTH 25 0
DWIDTH 3 0
BBX 5 9 0 0
BITMAP
48
00
38
20
20
40
40
40
80
ENDCHAR

STARTCHAR char208
ENCODING 208
SWIDTH 86 0
DWIDTH 10 0
BBX 0 0 0 0
BITMAP
ENDCHAR

STARTCHAR char209
ENCODING 209
SWIDTH 60 0
DWIDTH 7 0
BBX 10 10 -1 0
BITMAP
0F00
0A00
0000
11C0
3900
2900
2900
2600
4400
C400
ENDCHAR

STARTCHAR char210
ENCODING 210
SWIDTH 60 0
DWIDTH 7 0
BBX 6 9 1 0
BITMAP
08
00
7C
C4
84
84
88
88
70
ENDCHAR

STARTCHAR char211
ENCODING 211
SWIDTH 60 0
DWIDTH 7 0
BBX 6 9 1 0
BITMAP
10
00
7C
C4
84
84
88
88
70
ENDCHAR

STARTCHAR char212
ENCODING 212
SWIDTH 60 0
DWIDTH 7 0
BBX 6 9 1 0
BITMAP
38
00
7C
C4
84
84
88
88
70
ENDCHAR

STARTCHAR char213
ENCODING 213
SWIDTH 60 0
DWIDTH 7 0
BBX 6 10 1 0
BITMAP
1C
28
00
7C
44
84
84
88
88
70
ENDCHAR

STARTCHAR char214
ENCODING 214
SWIDTH 60 0
DWIDTH 7 0
BBX 6 9 1 0
BITMAP
14
00
7C
C4
84
84
88
88
70
ENDCHAR

STARTCHAR char215
ENCODING 215
SWIDTH 86 0
DWIDTH 10 0
BBX 0 0 0 0
BITMAP
ENDCHAR

STARTCHAR char216
ENCODING 216
SWIDTH 60 0
DWIDTH 7 0
BBX 6 9 1 -1
BITMAP
04
7C
94
94
A4
C8
C8
F0
80
ENDCHAR

STARTCHAR char217
ENCODING 217
SWIDTH 60 0
DWIDTH 7 0
BBX 7 9 1 0
BITMAP
08
00
F6
44
44
84
88
88
70
ENDCHAR

STARTCHAR char218
ENCODING 218
SWIDTH 60 0
DWIDTH 7 0
BBX 7 9 1 0
BITMAP
10
00
F6
44
44
84
88
88
70
ENDCHAR

STARTCHAR char219
ENCODING 219
SWIDTH 60 0
DWIDTH 7 0
BBX 7 9 1 0
BITMAP
38
00
F6
44
44
84
88
88
70
ENDCHAR

STARTCHAR char220
ENCODING 220
SWIDTH 60 0
DWIDTH 7 0
BBX 7 9 1 0
BITMAP
14
00
F6
44
44
84
88
88
70
ENDCHAR

STARTCHAR char221
ENCODING 221
SWIDTH 86 0
DWIDTH 10 0
BBX 0 0 0 0
BITMAP
ENDCHAR

STARTCHAR char222
ENCODING 222
SWIDTH 86 0
DWIDTH 10 0
BBX 0 0 0 0
BITMAP
ENDCHAR

STARTCHAR char223
ENCODING 223
SWIDTH 43 0
DWIDTH 5 0
BBX 7 9 -2 -2
BITMAP
0E
12
14
14
14
24
38
40
80
ENDCHAR

STARTCHAR char224
ENCODING 224
SWIDTH 43 0
DWIDTH 5 0
BBX 5 7 0 0
BITMAP
10
00
38
48
90
B0
D0
ENDCHAR

STARTCHAR char225
ENCODING 225
SWIDTH 43 0
DWIDTH 5 0
BBX 5 7 0 0
BITMAP
08
00
38
48
90
B0
D0
ENDCHAR

STARTCHAR char226
ENCODING 226
SWIDTH 43 0
DWIDTH 5 0
BBX 5 7 0 0
BITMAP
18
00
38
48
90
B0
D0
ENDCHAR

STARTCHAR char227
ENCODING 227
SWIDTH 43 0
DWIDTH 5 0
BBX 6 7 0 0
BITMAP
3C
00
38
48
90
B0
D0
ENDCHAR

STARTCHAR char228
ENCODING 228
SWIDTH 43 0
DWIDTH 5 0
BBX 5 7 0 0
BITMAP
38
00
38
50
90
90
F0
ENDCHAR

STARTCHAR char229
ENCODING 229
SWIDTH 43 0
DWIDTH 5 0
BBX 5 7 0 0
BITMAP
18
18
38
48
90
90
F8
ENDCHAR

STARTCHAR char230
ENCODING 230
SWIDTH 60 0
DWIDTH 7 0
BBX 7 5 0 0
BITMAP
3E
52
9C
B0
DC
ENDCHAR

STARTCHAR char231
ENCODING 231
SWIDTH 34 0
DWIDTH 4 0
BBX 5 7 0 -2
BITMAP
38
48
40
40
70
40
C0
ENDCHAR

STARTCHAR char232
ENCODING 232
SWIDTH 34 0
DWIDTH 4 0
BBX 4 7 0 0
BITMAP
10
00
30
50
E0
80
E0
ENDCHAR

STARTCHAR char233
ENCODING 233
SWIDTH 34 0
DWIDTH 4 0
BBX 4 7 0 0
BITMAP
10
00
30
50
E0
80
E0
ENDCHAR

STARTCHAR char234
ENCODING 234
SWIDTH 34 0
DWIDTH 4 0
BBX 5 7 0 0
BITMAP
38
00
30
50
E0
80
E0
ENDCHAR

STARTCHAR char235
ENCODING 235
SWIDTH 34 0
DWIDTH 4 0
BBX 5 7 0 0
BITMAP
28
00
30
50
E0
80
E0
ENDCHAR

STARTCHAR char236
ENCODING 236
SWIDTH 25 0
DWIDTH 3 0
BBX 2 7 1 0
BITMAP
40
00
80
80
80
80
C0
ENDCHAR

STARTCHAR char237
ENCODING 237
SWIDTH 25 0
DWIDTH 3 0
BBX 3 7 1 0
BITMAP
40
00
80
80
80
80
C0
ENDCHAR

STARTCHAR char238
ENCODING 238
SWIDTH 25 0
DWIDTH 3 0
BBX 3 7 1 0
BITMAP
60
00
80
80
80
80
C0
ENDCHAR

STARTCHAR char239
ENCODING 239
SWIDTH 25 0
DWIDTH 3 0
BBX 3 7 1 0
BITMAP
A0
00
80
80
80
80
C0
ENDCHAR

STARTCHAR char241
ENCODING 241
SWIDTH 43 0
DWIDTH 5 0
BBX 6 7 0 0
BITMAP
38
00
58
68
50
90
90
ENDCHAR

STARTCHAR char242
ENCODING 242
SWIDTH 43 0
DWIDTH 5 0
BBX 5 7 0 0
BITMAP
10
00
30
48
88
98
E0
ENDCHAR

STARTCHAR char243
ENCODING 243
SWIDTH 43 0
DWIDTH 5 0
BBX 5 7 0 0
BITMAP
10
00
30
48
88
98
E0
ENDCHAR

STARTCHAR char244
ENCODING 244
SWIDTH 43 0
DWIDTH 5 0
BBX 5 7 0 0
BITMAP
18
00
30
48
88
98
E0
ENDCHAR

STARTCHAR char245
ENCODING 245
SWIDTH 43 0
DWIDTH 5 0
BBX 6 7 0 0
BITMAP
3C
00
30
48
88
98
E0
ENDCHAR

STARTCHAR char246
ENCODING 246
SWIDTH 43 0
DWIDTH 5 0
BBX 5 7 0 0
BITMAP
28
00
30
48
88
98
F0
ENDCHAR

STARTCHAR char247
ENCODING 247
SWIDTH 43 0
DWIDTH 5 0
BBX 5 4 0 1
BITMAP
20
00
F8
20
ENDCHAR

STARTCHAR char248
ENCODING 248
SWIDTH 43 0
DWIDTH 5 0
BBX 5 6 0 -1
BITMAP
38
68
A8
D8
E0
80
ENDCHAR

STARTCHAR char249
ENCODING 249
SWIDTH 43 0
DWIDTH 5 0
BBX 5 7 0 0
BITMAP
10
00
48
48
D0
B0
D8
ENDCHAR

STARTCHAR char250
ENCODING 250
SWIDTH 43 0
DWIDTH 5 0
BBX 5 7 0 0
BITMAP
08
00
48
48
D0
B0
D8
ENDCHAR

STARTCHAR char251
ENCODING 251
SWIDTH 43 0
DWIDTH 5 0
BBX 5 7 0 0
BITMAP
18
00
48
48
D0
B0
D8
ENDCHAR

STARTCHAR char252
ENCODING 252
SWIDTH 43 0
DWIDTH 5 0
BBX 5 7 0 0
BITMAP
28
00
48
48
D0
B0
D8
ENDCHAR

STARTCHAR char255
ENCODING 255
SWIDTH 34 0
DWIDTH 4 0
BBX 6 9 -1 -2
BITMAP
14
00
68
28
28
38
20
40
C0
ENDCHAR
ENDFONT
